<?xml version="1.0" encoding="UTF-8"?>
<svg version="1.1" xmlns="http://www.w3.org/2000/svg" width="1800" height="1800">
<path d="M0 0 C594 0 1188 0 1800 0 C1800 594 1800 1188 1800 1800 C1206 1800 612 1800 0 1800 C0 1206 0 612 0 0 Z " fill="#004445" transform="translate(0,0)"/>
<path d="M0 0 C14.52 0 29.04 0 44 0 C46.99430108 7.18632258 49.70810718 13.72438354 51.6875 21.125 C52.94208157 26.52659599 52.94208157 26.52659599 56 31 C56.53876785 32.54296343 57.00993486 34.11009866 57.4375 35.6875 C58.41780224 39.28941053 59.67626733 42.61660008 61.17700195 46.03393555 C62.75755401 49.80972484 64.04366694 53.69344072 65.375 57.5625 C65.99579521 59.35036411 66.61689009 61.13812418 67.23828125 62.92578125 C67.53943848 63.79412598 67.8405957 64.6624707 68.15087891 65.55712891 C71.27477198 74.54438425 74.54141917 83.47370485 77.90380859 92.37402344 C79.48042713 96.5639412 80.96524561 100.76874982 82.34375 105.02734375 C83.46227923 108.38958934 84.73619699 111.69003973 86 115 C88.97342947 109.4779167 91.10071229 104.01274395 92.97265625 98.02734375 C93.90787803 95.27146208 95.00151695 92.63853466 96.16821289 89.97436523 C97.81763725 86.05922148 99.23376289 82.05344842 100.6875 78.0625 C101.00783203 77.18787109 101.32816406 76.31324219 101.65820312 75.41210938 C102.4405111 73.27535773 103.22106917 71.13798454 104 69 C104.66 69 105.32 69 106 69 C106.16435547 68.09121094 106.16435547 68.09121094 106.33203125 67.1640625 C107.89422754 58.90855365 109.56751385 51.20279 114 44 C115.13507263 41.04489712 116.04759494 38.01806582 117 35 C119.74820263 26.55182153 122.60420224 18.21563973 126 10 C127.32 6.7 128.64 3.4 130 0 C139.24 0 148.48 0 158 0 C160.36999013 5.92497532 162.71999316 11.83297327 164.9375 17.8125 C166.82043584 22.86783205 168.7327545 27.90932933 170.6875 32.9375 C172.87756516 38.61207777 174.84165388 44.32965911 176.671875 50.12890625 C178.0159082 54.30287603 179.53247118 58.33936856 181.25 62.375 C184.46862237 69.97827262 187.26028327 77.72973151 190.08398438 85.48583984 C197.21327347 105.1263019 197.21327347 105.1263019 204.875 124.5625 C207.19111654 130.31093383 209.17884325 136.17265479 211.21118164 142.02563477 C213.36025302 148.20299491 215.55919544 154.35987915 217.8125 160.5 C218.10229736 161.29462646 218.39209473 162.08925293 218.69067383 162.90795898 C219.10095825 164.02086304 219.10095825 164.02086304 219.51953125 165.15625 C219.75776611 165.80400391 219.99600098 166.45175781 220.24145508 167.11914062 C220.97887702 169.05463159 220.97887702 169.05463159 222.0925293 170.99023438 C223 173 223 173 223 177 C211.12 177 199.24 177 187 177 C184.33189804 170.99677059 181.84529543 165.09659176 179.625 158.9375 C179.01594953 157.26811073 178.40656901 155.59884184 177.796875 153.9296875 C177.49587891 153.10307617 177.19488281 152.27646484 176.88476562 151.42480469 C172.43408337 139.22407474 172.43408337 139.22407474 167.5625 127.1875 C165.00207333 121.14984873 162.76255384 115.00757807 160.51586914 108.84838867 C158.79309912 104.13133623 157.00665213 99.45535585 155.1015625 94.80859375 C154.12227441 92.31175637 153.19080386 89.80521562 152.2734375 87.28515625 C151.96148438 86.42857422 151.64953125 85.57199219 151.328125 84.68945312 C150.70215365 82.96418372 150.07964548 81.23765308 149.4609375 79.50976562 C149.1721875 78.71376953 148.8834375 77.91777344 148.5859375 77.09765625 C148.3286084 76.38101807 148.0712793 75.66437988 147.80615234 74.92602539 C146.96101141 72.73521656 146.96101141 72.73521656 145 70 C145 69.01 145 68.02 145 67 C144.34 67 143.68 67 143 67 C142.5875 68.2375 142.175 69.475 141.75 70.75 C141.33234375 71.99330078 141.33234375 71.99330078 140.90625 73.26171875 C140.30722466 75.07170481 139.723576 76.88686034 139.15625 78.70703125 C137.28973467 84.58816362 135.09236381 90.19426619 132.5625 95.8125 C129.68579203 102.20305971 127.33240401 108.61872465 125.23828125 115.3046875 C123.97727452 119.067818 122.54167475 122.71782721 121.05053711 126.39404297 C119.34898651 130.61490077 117.74000075 134.87044106 116.125 139.125 C115.60619263 140.4869751 115.60619263 140.4869751 115.0769043 141.87646484 C113.47482118 146.08826775 111.88243964 150.30300676 110.32421875 154.53125 C110.06688965 155.22718262 109.80956055 155.92311523 109.54443359 156.64013672 C108.86591795 158.48014077 108.19250542 160.32202445 107.51953125 162.1640625 C105.53013905 167.18612712 103.23525666 172.08243536 101 177 C89.78 177 78.56 177 67 177 C65.14340035 172.0490676 63.31803788 167.10957641 61.5625 162.125 C60.15028997 158.1565641 58.71641078 154.21248093 57.125 150.3125 C55.12850223 145.41864572 53.31595733 140.4628529 51.5 135.5 C48.73266204 127.94874659 45.92790131 120.43182191 42.71875 113.0546875 C40.13027369 107.05002444 38.18002488 101.43649937 37 95 C36.34 95 35.68 95 35 95 C34.68546875 93.96101562 34.3709375 92.92203125 34.046875 91.8515625 C31.9827774 85.09817945 29.9021853 78.42372945 27.16796875 71.90625 C26.16035054 69.39899933 25.21981614 66.88428603 24.30078125 64.34375 C23.99446777 63.4978833 23.6881543 62.6520166 23.37255859 61.78051758 C22.7607469 60.08389827 22.15283929 58.38586477 21.54931641 56.6862793 C20.02621785 52.47563768 18.33797802 48.8324242 16 45 C15.19140625 42.421875 15.19140625 42.421875 14.5625 39.75 C13.41183097 35.22647043 11.83614942 31.22719113 9.8515625 27.015625 C8.74335693 24.39253293 8.2895576 21.82318659 8 19 C7.34 19 6.68 19 6 19 C5.32815382 16.89748139 4.66269032 14.79292237 4 12.6875 C3.62875 11.51574219 3.2575 10.34398437 2.875 9.13671875 C2 6 2 6 2 3 C1.34 3 0.68 3 0 3 C0 2.01 0 1.02 0 0 Z " fill="#FBFCFC" transform="translate(658,815)"/>
<path d="M0 0 C13.86641514 -0.06813706 27.73271666 -0.12302294 41.59926224 -0.15543652 C48.04003435 -0.17100378 54.48068467 -0.19207626 60.92138672 -0.22631836 C67.15247523 -0.2592337 73.38344757 -0.27691997 79.61461639 -0.28463173 C81.97611059 -0.29011808 84.33759939 -0.30082894 86.69904327 -0.31719017 C97.92537375 -0.39178375 108.98198717 -0.31023098 120.10839844 1.32299805 C120.89579029 1.43851674 121.68318214 1.55403543 122.49443436 1.6730547 C129.88193608 2.90692149 136.28978874 5.69924807 143 9 C143.99 9.33 144.98 9.66 146 10 C146 10.66 146 11.32 146 12 C146.70640625 12.2475 147.4128125 12.495 148.140625 12.75 C164.32761332 19.82627905 175.6933538 35.90477525 182.6796875 51.5234375 C191.35091109 74.35594933 190.43752324 102.36127434 180.59765625 124.6328125 C171.10712182 144.63486794 156.25512245 158.41830047 136 167 C135.20980469 167.37253906 134.41960937 167.74507812 133.60546875 168.12890625 C118.68846626 174.83289908 101.2046381 173.26679126 85.25390625 173.1953125 C82.78669856 173.1915753 80.31948938 173.18873168 77.85227966 173.18673706 C71.40635979 173.17915623 64.96053222 173.15955629 58.51464844 173.1373291 C51.91798145 173.11675017 45.32129932 173.10770975 38.72460938 173.09765625 C25.81635948 173.07630443 12.90820191 173.04116843 0 173 C0 161.78 0 150.56 0 139 C3.21403564 138.99589111 6.42807129 138.99178223 9.73950195 138.98754883 C20.38460345 138.97031529 31.02946598 138.92575313 41.67442036 138.86790943 C48.12552306 138.83368753 54.57639013 138.80853682 61.02758789 138.80444336 C67.25885548 138.80015027 73.48959196 138.77160252 79.72069359 138.72656822 C82.09236744 138.71362571 84.46410495 138.70927395 86.83580971 138.71384621 C90.17016868 138.71877503 93.50298892 138.69255626 96.8371582 138.65942383 C97.80748993 138.66804947 98.77782166 138.67667511 99.77755737 138.68556213 C110.39067586 138.50994077 120.9907727 133.47223252 128.8359375 126.328125 C139.09752085 115.48400635 143.58025091 101.49961316 143.5 86.875 C143.49935547 85.77857178 143.49871094 84.68214355 143.49804688 83.55249023 C143.33199055 74.46291511 141.50794437 67.33136787 138 59 C138 58.34 138 57.68 138 57 C137.34 57 136.68 57 136 57 C134.95703125 55.4609375 134.95703125 55.4609375 133.8125 53.375 C127.79364566 43.42546527 117.04096425 37.80922897 106 35 C102.41107382 34.58861713 98.85772799 34.5622239 95.24780273 34.56762695 C94.21261002 34.5574353 93.1774173 34.54724365 92.1108551 34.53674316 C88.71837857 34.50675562 85.32618508 34.49736887 81.93359375 34.48828125 C79.56990125 34.47142404 77.20621765 34.45327241 74.84254456 34.43388367 C68.64320662 34.38649098 62.44390482 34.35661208 56.2444458 34.33044434 C49.90963611 34.30058472 43.57495074 34.25407292 37.24023438 34.20898438 C24.82687384 34.12307317 12.41352601 34.05721393 0 34 C0 22.78 0 11.56 0 0 Z " fill="#FDFDFD" transform="translate(256,816)"/>
<path d="M0 0 C7.26 0 14.52 0 22 0 C22 25.08 22 50.16 22 76 C63.58 76 105.16 76 148 76 C148 109.33 148 142.66 148 177 C140.74 177 133.48 177 126 177 C126 151.26 126 125.52 126 99 C91.68 99 57.36 99 22 99 C22 124.74 22 150.48 22 177 C14.74 177 7.48 177 0 177 C0 118.59 0 60.18 0 0 Z " fill="#FDFDFD" transform="translate(1176,816)"/>
<path d="M0 0 C3.82771464 4.28669399 6.0195009 8.88917898 8.375 14.0625 C9.16286623 15.76487707 9.95192944 17.46670067 10.7421875 19.16796875 C11.1247168 19.99345215 11.50724609 20.81893555 11.90136719 21.66943359 C13.79521756 25.68692153 15.84246082 29.62202256 17.90625 33.5546875 C19.01946753 36.04352382 19.57645505 38.31433996 20 41 C20.66 41 21.32 41 22 41 C22.6708712 42.6232687 23.33657029 44.24867578 24 45.875 C24.37125 46.77992188 24.7425 47.68484375 25.125 48.6171875 C26 51 26 51 26 53 C26.66 53 27.32 53 28 53 C28.24645264 53.52319824 28.49290527 54.04639648 28.74682617 54.58544922 C29.8925182 57.01586709 31.03984992 59.44550612 32.1875 61.875 C32.80334961 63.18041748 32.80334961 63.18041748 33.43164062 64.51220703 C35.89847453 69.72548833 38.41819657 74.89813383 41.125 79.9921875 C42.13062802 82.29974466 42.58580891 84.52348247 43 87 C43.66 87 44.32 87 45 87 C45.6708712 88.6232687 46.33657029 90.24867578 47 91.875 C47.37125 92.77992188 47.7425 93.68484375 48.125 94.6171875 C49 97 49 97 49 99 C49.66 99 50.32 99 51 99 C51.31453125 99.78503906 51.6290625 100.57007813 51.953125 101.37890625 C54.78043364 108.3917272 54.78043364 108.3917272 58.3125 115.0625 C60 118 60 118 60 121 C60.66 121 61.32 121 62 121 C62.67354499 122.43429001 63.33859701 123.87257057 64 125.3125 C64.37125 126.11300781 64.7425 126.91351562 65.125 127.73828125 C66 130 66 130 66 133 C66.66 133 67.32 133 68 133 C69.5094588 136.09965403 71.00590667 139.20541403 72.5 142.3125 C73.14388672 143.63411133 73.14388672 143.63411133 73.80078125 144.98242188 C74.20683594 145.82998047 74.61289063 146.67753906 75.03125 147.55078125 C75.59682617 148.72120972 75.59682617 148.72120972 76.17382812 149.9152832 C77 152 77 152 77 155 C77.66 155 78.32 155 79 155 C79.67354499 156.43429001 80.33859701 157.87257057 81 159.3125 C81.37125 160.11300781 81.7425 160.91351562 82.125 161.73828125 C83 164 83 164 83 167 C83.66 167 84.32 167 85 167 C86.33957921 169.78871177 87.67058435 172.58143062 89 175.375 C89.3815625 176.1690625 89.763125 176.963125 90.15625 177.78125 C90.5171875 178.54179688 90.878125 179.30234375 91.25 180.0859375 C91.58515625 180.7876709 91.9203125 181.4894043 92.265625 182.21240234 C93 184 93 184 93 186 C88.91720499 186.17421117 84.83536319 186.28082588 80.75 186.375 C79.59113281 186.42527344 78.43226563 186.47554687 77.23828125 186.52734375 C74.06197236 186.58242425 71.13069973 186.5422059 68 186 C65.46875 183.53515625 65.46875 183.53515625 64 180 C63.31138713 178.59304023 62.61838431 177.1882237 61.921875 175.78515625 C61.19426878 174.21262023 60.47047335 172.63831677 59.75 171.0625 C57.02400839 165.19820074 54.2218533 159.42756438 51.125 153.75 C44.69250207 141.94735567 39.14078013 129.68403967 33.42578125 117.5234375 C29.0313425 108.19769062 24.48525722 98.99909126 19.62231445 89.90820312 C16.43915158 83.92675931 13.49739231 77.85737177 10.68701172 71.69238281 C9.18783759 68.42338431 7.61645554 65.2936996 5.7734375 62.203125 C4 59 4 59 4 56 C3.34 56 2.68 56 2 56 C1.34 55.01 0.68 54.02 0 53 C-8.98480703 70.03535315 -17.66567662 87.15147795 -25.91821289 104.55297852 C-28.62137747 110.22032566 -31.42708339 115.80251664 -34.4375 121.3125 C-37.39528676 126.7421948 -39.91787831 132.17827816 -42 138 C-42.66 138 -43.32 138 -44 138 C-44.37125 139.2375 -44.7425 140.475 -45.125 141.75 C-46.8237532 146.8952621 -49.20188372 151.59765672 -51.6953125 156.3984375 C-53.08287728 159.01094906 -53.08287728 159.01094906 -54 162 C-54.66 162 -55.32 162 -56 162 C-56.1546875 163.0209375 -56.1546875 163.0209375 -56.3125 164.0625 C-57.14725019 167.62915989 -58.49472754 170.66222194 -60 174 C-60.66 174 -61.32 174 -62 174 C-62.1546875 175.0209375 -62.1546875 175.0209375 -62.3125 176.0625 C-63 179 -63 179 -66 186 C-74.58 186 -83.16 186 -92 186 C-91.03327817 181.16639085 -89.40954535 177.72349401 -87.0625 173.5 C-83.48034893 166.90313146 -80.13512581 160.22889573 -76.9375 153.4375 C-71.36520375 141.6260274 -65.59864882 129.95328975 -59.4375 118.4375 C-56.29902057 112.56883654 -53.36567438 106.64523721 -50.59350586 100.59570312 C-47.55461045 93.97684709 -44.27820613 87.48316902 -40.99511719 80.98291016 C-39.98840943 78.97690417 -38.99611055 76.96435165 -38.0078125 74.94921875 C-37.69070313 74.3054126 -37.37359375 73.66160645 -37.046875 72.99829102 C-36.17750951 71.23170166 -35.31130871 69.46355593 -34.4453125 67.6953125 C-33 65 -33 65 -31 63 C-30.31512194 61.15082924 -29.63312652 59.30054526 -28.96484375 57.4453125 C-27.00059792 52.46710243 -24.43063989 47.76251789 -22 43 C-20.70341479 40.41911949 -19.41441272 37.83446975 -18.125 35.25 C-17.44414135 33.88795537 -16.76315032 32.52597692 -16.08203125 31.1640625 C-15.73994629 30.47989258 -15.39786133 29.79572266 -15.04541016 29.09082031 C-13.46606445 25.93212891 -13.46606445 25.93212891 -11.88671875 22.7734375 C-11.54181396 22.08354736 -11.19690918 21.39365723 -10.84155273 20.68286133 C-10.16294014 19.32579714 -9.48407219 17.9688606 -8.80493164 16.61206055 C-7.33786126 13.68048651 -5.8749624 10.74713931 -4.421875 7.80859375 C-3.74898437 6.44927734 -3.74898437 6.44927734 -3.0625 5.0625 C-2.68222656 4.29035156 -2.30195312 3.51820313 -1.91015625 2.72265625 C-1 1 -1 1 0 0 Z " fill="#F9FBFB" transform="translate(1451,807)"/>
<path d="M0 0 C1.81544269 0.46839061 3.62682461 0.95598498 5.42016602 1.50292969 C4.03061493 4.63602901 2.41728984 6.75030651 -0.00930786 9.15945435 C-0.71884613 9.86885162 -1.4283844 10.5782489 -2.15942383 11.30914307 C-2.93769531 12.07708191 -3.7159668 12.84502075 -4.51782227 13.63623047 C-5.33741425 14.45290192 -6.15700623 15.26957336 -7.00143433 16.11099243 C-8.7813295 17.88327678 -10.56353143 19.65324677 -12.34775162 21.42117691 C-15.16702045 24.21496364 -17.98020262 27.01479214 -20.79147339 29.81661987 C-26.75669904 35.75966013 -32.73034451 41.69420457 -38.70483398 47.62792969 C-45.161556 54.04063403 -51.61682338 60.45476243 -58.06240642 66.8786658 C-61.3106992 70.11536166 -64.56670062 73.34418519 -67.82400513 76.57180786 C-69.51650818 78.25705018 -71.20873349 79.9425715 -72.90063477 81.62841797 C-74.07411469 82.78639893 -74.07411469 82.78639893 -75.27130127 83.96777344 C-75.97519989 84.67153107 -76.67909851 85.3752887 -77.40432739 86.10037231 C-78.02117464 86.71277834 -78.63802189 87.32518436 -79.27356148 87.95614815 C-80.79490401 89.42016987 -80.79490401 89.42016987 -80.57983398 91.50292969 C-78.95137671 93.23008134 -77.29485238 94.86528054 -75.57983398 96.50292969 C-74.41050674 97.6669297 -73.24395057 98.8337185 -72.07983398 100.00292969 C-71.18651367 100.89625 -71.18651367 100.89625 -70.27514648 101.80761719 C-63.57983398 108.50292969 -63.57983398 108.50292969 -61.07983398 111.06542969 C-58.6859243 113.49749216 -58.6859243 113.49749216 -56.20483398 115.31542969 C-53.20592208 117.81452294 -50.81024285 120.58828601 -48.27514648 123.54589844 C-45.48031997 126.77218434 -42.60000422 129.72437872 -39.20483398 132.31542969 C-36.18688989 134.8303831 -33.81081873 137.64591308 -31.26733398 140.62792969 C-29.55117598 142.63690887 -29.55117598 142.63690887 -27.07983398 144.50292969 C-24.12661465 146.86550515 -21.85978283 149.54942429 -19.40795898 152.41699219 C-16.61723225 155.60128295 -13.60482307 158.54338507 -10.57983398 161.50292969 C-8.06887634 164.01388733 -5.55961987 166.52364916 -3.07983398 169.06542969 C-0.63722318 171.54279562 -0.63722318 171.54279562 2.10766602 173.56542969 C4.42388918 175.5060491 5.19695026 176.81632338 6.42016602 179.50292969 C-4.08207125 182.80741561 -15.24841699 183.91240012 -25.57983398 179.50292969 C-41.46210119 169.81162157 -54.48554225 154.04451915 -67.13485372 140.53547049 C-72.15829641 135.17964468 -77.29224262 129.93490057 -82.43008626 124.68916368 C-86.82510619 120.19421945 -91.19146052 115.67145066 -95.55249023 111.14355469 C-96.01871017 110.66000928 -96.4849301 110.17646387 -96.96527791 109.67826557 C-100.0402907 106.48465077 -103.0877942 103.26654029 -106.12304688 100.03515625 C-106.8992337 99.22667236 -107.67542053 98.41818848 -108.47512817 97.58520508 C-109.51436684 96.46628876 -109.51436684 96.46628876 -110.57460022 95.32476807 C-111.18290208 94.67951298 -111.79120394 94.03425789 -112.41793919 93.36944962 C-113.57983398 91.50292969 -113.57983398 91.50292969 -113.46577454 89.4981842 C-112.41777403 87.13794937 -111.17860839 85.64157019 -109.41001892 83.75701904 C-108.39189873 82.66334518 -108.39189873 82.66334518 -107.35321045 81.5475769 C-106.60291565 80.75779449 -105.85262085 79.96801208 -105.07958984 79.15429688 C-103.89826225 77.89521011 -103.89826225 77.89521011 -102.69306946 76.61068726 C-95.37850815 68.84521072 -87.96352105 61.17397166 -80.51666927 53.53538132 C-75.522647 48.41012403 -70.56341762 43.25931536 -65.68212891 38.02636719 C-25.7231125 -4.75498887 -25.7231125 -4.75498887 0 0 Z " fill="#FAFBFB" transform="translate(1127.579833984375,813.4970703125)"/>
<path d="M0 0 C51.48 0 102.96 0 156 0 C156 11.88 156 23.76 156 36 C104.52 36 53.04 36 0 36 C0 24.12 0 12.24 0 0 Z " fill="#F7F9F9" transform="translate(476,815)"/>
<path d="M0 0 C51.15 0 102.3 0 155 0 C155 11.88 155 23.76 155 36 C103.85 36 52.7 36 0 36 C0 24.12 0 12.24 0 0 Z " fill="#F8FAF9" transform="translate(477,954)"/>
<path d="M0 0 C51.48 0 102.96 0 156 0 C156 11.55 156 23.1 156 35 C104.52 35 53.04 35 0 35 C0 23.45 0 11.9 0 0 Z " fill="#FAFBFB" transform="translate(476,885)"/>
<path d="M0 0 C7.59 0 15.18 0 23 0 C23 59.07 23 118.14 23 179 C15.41 179 7.82 179 0 179 C0 119.93 0 60.86 0 0 Z " fill="#F8F9FA" transform="translate(972,815)"/>
<path d="M0 0 C14.52 0 29.04 0 44 0 C43.27523719 3.62381404 42.82115884 5.68696629 41.3125 8.8125 C38.43533491 15.07085911 36.12484989 21.54005202 33.74023438 27.99731445 C31.88773928 33.00919351 30.01824738 37.99036391 27.8828125 42.890625 C25.22192811 49.24849036 22.84002537 55.72825147 20.4375 62.1875 C19.09590462 65.78238265 17.66696658 69.33899842 16.234375 72.8984375 C14.31540709 77.720148 12.4457934 82.56094003 10.56958008 87.39941406 C9.04859307 91.31763992 7.51558119 95.22931841 5.9375 99.125 C3.15378087 106.02959592 0.59670964 113.02350677 -2 120 C-2.66 120 -3.32 120 -4 120 C-6.40798753 116.57878135 -7.72214043 113.16741139 -8.9375 109.1875 C-10.29302554 104.97769805 -11.80027573 101.1517438 -13.8671875 97.25390625 C-15.97085386 93.0683356 -17.7223476 88.72377901 -19.53515625 84.40625 C-21.03543734 80.91759637 -22.67229764 77.52388647 -24.43359375 74.16015625 C-25.82077735 68.86972498 -23.64837417 63.51163652 -21.8125 58.5625 C-21.36261719 57.33917969 -20.91273438 56.11585938 -20.44921875 54.85546875 C-19.9673948 53.56984372 -19.48431611 52.28468827 -19 51 C-18.76619629 50.37947754 -18.53239258 49.75895508 -18.29150391 49.11962891 C-16.18290701 43.52814658 -16.18290701 43.52814658 -15.37670898 41.39599609 C-12.66171826 34.17617666 -10.14134805 26.88963451 -7.60546875 19.60546875 C-6.31479184 15.89807673 -5.01440692 12.19462188 -3.6875 8.5 C-3.40261719 7.7059375 -3.11773438 6.911875 -2.82421875 6.09375 C-2.0041537 4.01055159 -1.00122148 2.00244297 0 0 Z " fill="#FAFBFB" transform="translate(902,815)"/>
<path d="M0 0 C7.92 0 15.84 0 24 0 C24 25.08 24 50.16 24 76 C65.91 76 107.82 76 151 76 C151.0309375 101.4615625 151.0309375 101.4615625 151.0625 127.4375 C151.071604 132.80572021 151.08070801 138.17394043 151.09008789 143.70483398 C151.09460449 150.23840332 151.09460449 150.23840332 151.09544373 153.29286194 C151.09698365 155.4353201 151.10050955 157.57777738 151.10557556 159.7202301 C151.11285008 162.95730098 151.11390752 166.19431871 151.11352539 169.43139648 C151.1171235 170.39273971 151.12072161 171.35408293 151.12442875 172.34455776 C151.12305125 173.21077786 151.12167376 174.07699797 151.12025452 174.96946716 C151.12163721 176.1074206 151.12163721 176.1074206 151.12304783 177.268363 C151 179 151 179 150 180 C142.08 180 134.16 180 126 180 C126 153.6 126 127.2 126 100 C126.33 100 126.66 100 127 100 C127 125.74 127 151.48 127 178 C134.26 178 141.52 178 149 178 C149 144.67 149 111.34 149 77 C107.42 77 65.84 77 23 77 C23 51.92 23 26.84 23 1 C15.74 1 8.48 1 1 1 C1 59.41 1 117.82 1 178 C0.67 178 0.34 178 0 178 C0 119.26 0 60.52 0 0 Z " fill="#648E8E" transform="translate(1175,815)"/>
<path d="M0 0 C0.66 0 1.32 0 2 0 C2 11.22 2 22.44 2 34 C16.28266787 33.8917162 30.5652911 33.77955752 44.84787464 33.66066074 C51.48051684 33.60559981 58.11316356 33.55220764 64.74584961 33.50268555 C71.15198585 33.45479262 77.55807186 33.40244253 83.96414757 33.34705925 C86.40282622 33.3267481 88.84151859 33.30801732 91.28022194 33.29092598 C94.70745396 33.26663125 98.13459325 33.23661354 101.56176758 33.20532227 C102.56015152 33.1995668 103.55853546 33.19381134 104.58717346 33.18788147 C111.10147108 33.12069383 117.52171194 32.68377129 124 32 C123.505 32.99 123.505 32.99 123 34 C120.12725409 34.495645 117.34922421 34.84693052 114.4519043 35.1105957 C113.11286183 35.23703319 113.11286183 35.23703319 111.746768 35.36602497 C100.76303274 36.31145226 89.7852794 36.26956191 78.76953125 36.23046875 C76.51364671 36.22927322 74.25776167 36.22882457 72.00187683 36.2290802 C67.32356558 36.2275315 62.64533261 36.2193575 57.96704102 36.20581055 C51.95911779 36.18863477 45.95127855 36.18500237 39.94333363 36.18575573 C35.30843804 36.18548489 30.67356095 36.18002073 26.03867149 36.17275429 C23.8205854 36.16956825 21.60249721 36.16760036 19.38440895 36.16686058 C16.30937677 36.16470691 13.23443645 36.15598954 10.15942383 36.14526367 C9.24066467 36.14571686 8.32190552 36.14617004 7.37530518 36.14663696 C1.11449326 36.11449326 1.11449326 36.11449326 0 35 C-0.08851529 32.40640678 -0.11525945 29.83960309 -0.09765625 27.24609375 C-0.09553383 26.08292381 -0.09553383 26.08292381 -0.09336853 24.89625549 C-0.08775345 22.40996506 -0.07519846 19.9237634 -0.0625 17.4375 C-0.05748694 15.75586067 -0.0529237 14.07421994 -0.04882812 12.39257812 C-0.03777913 8.26168434 -0.02050445 4.13085724 0 0 Z " fill="#51807F" transform="translate(254,955)"/>
<path d="M0 0 C0 0.66 0 1.32 0 2 C-10.89 2 -21.78 2 -33 2 C-33 1.34 -33 0.68 -33 0 C-28.62196815 -0.16750929 -24.24375401 -0.32807935 -19.86523438 -0.48217773 C-18.37525558 -0.53560003 -16.88534391 -0.59092962 -15.39550781 -0.64819336 C-13.25600663 -0.73009836 -11.11635907 -0.80517709 -8.9765625 -0.87890625 C-7.04417725 -0.94960327 -7.04417725 -0.94960327 -5.07275391 -1.02172852 C-2 -1 -2 -1 0 0 Z " fill="#396E6E" transform="translate(1136,993)"/>
<path d="M0 0 C0.33 0 0.66 0 1 0 C1.25 3.25 1.25 3.25 1 7 C-0.32 8.32 -1.64 9.64 -3 11 C-2.01 7.37 -1.02 3.74 0 0 Z " fill="#326766" transform="translate(937,836)"/>
</svg>
